<svg xmlns="http://www.w3.org/2000/svg" viewBox="0 0 1201 464" enable-background="new 0 0 1201 464"><path d="M667.4 385c-10.6 5.1-36.4 11.1-68.6 11.1-107.8 0-153.8-72.3-153.8-154.3 0-111.4 76-164.4 160.2-164.4 31.8 0 56.6 6 67.2 12l-14.3 63.5c-11.5-5.1-27.6-9.7-48.3-9.7-44.2 0-81 28.5-81 93.5 0 58.9 31.3 92.1 82 92.1 16.6 0 35.9-3.2 47-7.4l9.6 63.6zM710.7 313.2c17 8.7 45.1 17 72.3 17 28.1 0 41.4-10.6 41.4-26.2 0-16.1-13.4-24.9-46.5-38.2-51.6-22.1-78.3-52.5-78.3-91.6 0-53.9 42.4-96.7 118.8-96.7 32.2 0 57.1 6.4 74.1 14.3l-15.2 64.9c-12.4-5.5-32.2-13.4-59.4-13.4-24.9 0-38.2 10.1-38.2 23.9 0 15.2 13.4 22.1 51.6 38.7 52 21.2 73.7 52 73.7 92.1 0 54.8-42.4 98.1-125.2 98.1-34.5 0-67.2-8.7-82.9-16.6l13.8-66.3zM947.8 313.2c17 8.7 45.1 17 72.3 17 28.1 0 41.4-10.6 41.4-26.2 0-16.1-13.4-24.9-46.5-38.2-51.6-22.1-78.3-52.5-78.3-91.6 0-53.9 42.4-96.7 118.8-96.7 32.2 0 57.1 6.4 74.1 14.3l-15.2 64.9c-12.4-5.5-32.2-13.4-59.4-13.4-24.9 0-38.2 10.1-38.2 23.9 0 15.2 13.4 22.1 51.6 38.7 52 21.2 73.7 52 73.7 92.1 0 54.8-42.4 98.1-125.2 98.1-34.5 0-67.2-8.7-82.9-16.6l13.8-66.3z"/><rect x="55.7" y="50.7" opacity=".18" width="122.7" height="122.7"/><rect x="55.7" y="173.2" opacity=".55" width="122.7" height="122.7"/><rect x="55.7" y="295.7" width="122.7" height="122.7"/><rect x="178.3" y="173" opacity=".18" width="122.7" height="122.7"/><rect x="178.3" y="295.6" opacity=".55" width="122.7" height="122.7"/><rect x="300.8" y="295.5" opacity=".18" width="122.7" height="122.7"/><g fill="#666"><path d="M660.4 379c-10.6 5.1-36.4 11.1-68.6 11.1-107.8 0-153.8-72.3-153.8-154.3 0-111.4 76-164.4 160.2-164.4 31.8 0 56.6 6 67.2 12l-14.3 63.5c-11.5-5.1-27.6-9.7-48.3-9.7-44.2 0-81 28.5-81 93.5 0 58.9 31.3 92.1 82 92.1 16.6 0 35.9-3.2 47-7.4l9.6 63.6zM703.7 307.2c17 8.7 45.1 17 72.3 17 28.1 0 41.4-10.6 41.4-26.2 0-16.1-13.4-24.9-46.5-38.2-51.6-22.1-78.3-52.5-78.3-91.6 0-53.9 42.4-96.7 118.8-96.7 32.2 0 57.1 6.4 74.1 14.3l-15.2 64.9c-12.4-5.5-32.2-13.4-59.4-13.4-24.9 0-38.2 10.1-38.2 23.9 0 15.2 13.4 22.1 51.6 38.7 52 21.2 73.7 52 73.7 92.1 0 54.8-42.4 98.1-125.2 98.1-34.5 0-67.2-8.7-82.9-16.6l13.8-66.3zM940.8 307.2c17 8.7 45.1 17 72.3 17 28.1 0 41.4-10.6 41.4-26.2 0-16.1-13.4-24.9-46.5-38.2-51.6-22.1-78.3-52.5-78.3-91.6 0-53.9 42.4-96.7 118.8-96.7 32.2 0 57.1 6.4 74.1 14.3l-15.2 64.9c-12.4-5.5-32.2-13.4-59.4-13.4-24.9 0-38.2 10.1-38.2 23.9 0 15.2 13.4 22.1 51.6 38.7 52 21.2 73.7 52 73.7 92.1 0 54.8-42.4 98.1-125.2 98.1-34.5 0-67.2-8.7-82.9-16.6l13.8-66.3z"/></g><rect x="300.8" y="177.2" width="4.2" height="118"/><rect x="423.5" y="300.2" width="4.2" height="118"/><rect x="178.2" y="55" width="4.2" height="118"/><rect x="59.5" y="418.3" width="368.3" height="4.2"/></svg>