<?xml version="1.0" encoding="utf-8"?>
<!-- Generator: Adobe Illustrator 18.1.1, SVG Export Plug-In . SVG Version: 6.00 Build 0)  -->
<!DOCTYPE svg PUBLIC "-//W3C//DTD SVG 1.1//EN" "http://www.w3.org/Graphics/SVG/1.1/DTD/svg11.dtd">
<svg version="1.1" id="Layer_1" xmlns="http://www.w3.org/2000/svg" xmlns:xlink="http://www.w3.org/1999/xlink" x="0px" y="0px"
	 viewBox="0 0 468.1 467.8" enable-background="new 0 0 468.1 467.8" xml:space="preserve">
<rect y="0" fill="#99CCCC" width="464" height="463.4"/>
<g>
	<path d="M175.7,428.1c-5.7,2.7-19.6,5.9-36.9,5.9c-58,0-82.7-38.9-82.7-83c0-59.9,40.9-88.4,86.2-88.4c17.1,0,30.5,3.2,36.2,6.4
		l-7.7,34.2c-6.2-2.7-14.9-5.2-26-5.2c-23.8,0-43.6,15.4-43.6,50.3c0,31.7,16.8,49.5,44.1,49.5c8.9,0,19.3-1.7,25.3-4L175.7,428.1z"
		/>
	<path d="M199,389.5c9.2,4.7,24.3,9.2,38.9,9.2c15.1,0,22.3-5.7,22.3-14.1c0-8.7-7.2-13.4-25-20.6c-27.7-11.9-42.1-28.2-42.1-49.3
		c0-29,22.8-52,63.9-52c17.3,0,30.7,3.5,39.9,7.7l-8.2,34.9c-6.7-3-17.3-7.2-32-7.2c-13.4,0-20.6,5.4-20.6,12.9
		c0,8.2,7.2,11.9,27.7,20.8c28,11.4,39.6,28,39.6,49.5c0,29.5-22.8,52.8-67.4,52.8c-18.6,0-36.2-4.7-44.6-8.9L199,389.5z"/>
	<path d="M326.6,389.5c9.2,4.7,24.3,9.2,38.9,9.2c15.1,0,22.3-5.7,22.3-14.1c0-8.7-7.2-13.4-25-20.6c-27.7-11.9-42.1-28.2-42.1-49.3
		c0-29,22.8-52,63.9-52c17.3,0,30.7,3.5,39.9,7.7l-8.2,34.9c-6.7-3-17.3-7.2-32-7.2c-13.4,0-20.6,5.4-20.6,12.9
		c0,8.2,7.2,11.9,27.7,20.8c28,11.4,39.6,28,39.6,49.5c0,29.5-22.8,52.8-67.4,52.8c-18.6,0-36.2-4.7-44.6-8.9L326.6,389.5z"/>
</g>
<g>
	<path fill="#FFFFFF" d="M172,424.9c-5.7,2.7-19.6,5.9-36.9,5.9c-58,0-82.7-38.9-82.7-83c0-59.9,40.9-88.4,86.2-88.4
		c17.1,0,30.5,3.2,36.2,6.4l-7.7,34.2c-6.2-2.7-14.9-5.2-26-5.2c-23.8,0-43.6,15.4-43.6,50.3c0,31.7,16.8,49.5,44.1,49.5
		c8.9,0,19.3-1.7,25.3-4L172,424.9z"/>
	<path fill="#FFFFFF" d="M195.2,386.3c9.2,4.7,24.3,9.2,38.9,9.2c15.1,0,22.3-5.7,22.3-14.1c0-8.7-7.2-13.4-25-20.6
		c-27.7-11.9-42.1-28.2-42.1-49.3c0-29,22.8-52,63.9-52c17.3,0,30.7,3.5,39.9,7.7l-8.2,34.9c-6.7-3-17.3-7.2-32-7.2
		c-13.4,0-20.6,5.4-20.6,12.9c0,8.2,7.2,11.9,27.7,20.8c28,11.4,39.6,28,39.6,49.5c0,29.5-22.8,52.8-67.4,52.8
		c-18.6,0-36.2-4.7-44.6-8.9L195.2,386.3z"/>
	<path fill="#FFFFFF" d="M322.8,386.3c9.2,4.7,24.3,9.2,38.9,9.2c15.1,0,22.3-5.7,22.3-14.1c0-8.7-7.2-13.4-25-20.6
		c-27.7-11.9-42.1-28.2-42.1-49.3c0-29,22.8-52,63.9-52c17.3,0,30.7,3.5,39.9,7.7l-8.2,34.9c-6.7-3-17.3-7.2-32-7.2
		c-13.4,0-20.6,5.4-20.6,12.9c0,8.2,7.2,11.9,27.7,20.8c28,11.4,39.6,28,39.6,49.5c0,29.5-22.8,52.8-67.4,52.8
		c-18.6,0-36.2-4.7-44.6-8.9L322.8,386.3z"/>
</g>
<rect x="464" y="4.1" width="4.1" height="463.7"/>
<rect x="4.2" y="463.6" width="463.8" height="4.2"/>
</svg>
